<svg width="114" height="35" fill="none" xmlns="http://www.w3.org/2000/svg" viewBox="-0.5 3.5 115 28" class="Logo__Svg Logo__White"><path fill-rule="evenodd" clip-rule="evenodd" d="m24.4277 15.5019-6.4661 3.796c-.9085.5334-2.0709.2171-2.5958-.7074-.5248-.9244-.2131-2.1061.6957-2.6397l4.5309-2.6597c-1.7422-1.4858-4.2833-1.7902-6.3641-.5684-2.6583 1.5603-3.5719 5.0285-2.0371 7.7315 1.5347 2.7027 4.9456 3.6326 7.6036 2.0717.9085-.533 2.0712-.2161 2.5957.7077.5246.9239.2132 2.1058-.6953 2.6395-4.4732 2.626-10.213 1.0612-12.79518-3.4868-2.58284-4.5484-1.04495-10.3844 3.42788-13.01073 4.4732-2.62565 10.2126-1.06156 12.7952 3.48683.5248.9245.2131 2.1058-.6954 2.6395Zm7.3137-6.52482C27.0447.70488 16.6422-2.12916 8.50686 2.64658.372126 7.42263-2.41535 17.9997 2.28171 26.2716c4.69673 8.2719 15.09879 11.1062 23.23419 6.3305 8.1351-4.7761 10.9222-15.3535 6.2255-23.62502ZM44.5929 5.85877c-.5921-.6011-.8873-1.33803-.8873-2.21078 0-.87308.2952-1.61.8873-2.21207.5912-.601097 1.3159-.90229 2.1745-.90229.8584 0 1.5831.301193 2.1755.90229.5909.60207.8871 1.33899.8871 2.21207 0 .87275-.2962 1.60968-.8871 2.21078-.5924.60206-1.3171.90229-2.1755.90229-.8586 0-1.5833-.30023-2.1745-.90229Zm-.4345 21.81463V10.9007c0-1.46551 1.1684-2.65358 2.6097-2.65358s2.6094 1.18807 2.6094 2.65358v17.1975c0 2.0763-.6209 3.7155-1.8616 4.9186-1.2417 1.2032-2.7607 1.8056-4.5588 1.8056-1.1337 0-2.232-.3009-3.2962-.901-1.0812-.6095-1.4267-2.0358-.7743-3.1035l.1361-.2222c.5672-.9279 1.6847-1.2144 2.7029-.866.2681.0915.5453.1375.8314.1375.4633 0 .8467-.1818 1.1486-.5475.3012-.3667.4528-.9155.4528-1.6463ZM58.4954 17.3958c0 1.5577.4345 2.8251 1.3039 3.8038.8706.98 1.9847 1.469 3.3411 1.469 1.3575 0 2.4704-.489 3.341-1.469.8703-.9787 1.3048-2.2461 1.3048-3.8038 0-1.5567-.4345-2.8302-1.3048-3.8208-.8706-.9909-1.9835-1.4863-3.341-1.4863-1.3564 0-2.4705.4954-3.3411 1.4863-.8694.9906-1.3039 2.2641-1.3039 3.8208Zm14.5462 0c0 2.7596-.9401 5.0837-2.8194 6.9714-1.8792 1.8868-4.2401 2.8302-7.0818 2.8302-2.8422 0-5.2027-.9434-7.0819-2.8302-1.8784-1.8877-2.8181-4.2118-2.8181-6.9714 0-2.7598.9397-5.0885 2.8181-6.9887 1.8792-1.89774 4.2397-2.8482 7.0819-2.8482 2.8417 0 5.2026.95046 7.0818 2.8482 1.8793 1.9002 2.8194 4.2289 2.8194 6.9887ZM82.0542 17.414c0 1.5455.4226 2.8071 1.2692 3.7858.8466.9797 1.8736 1.469 3.0805 1.469 1.2063 0 2.2617-.4893 3.1668-1.469.9041-.9787 1.3566-2.2339 1.3566-3.7688 0-1.5322-.4405-2.8179-1.3219-3.8561-.8823-1.0381-1.938-1.5579-3.1667-1.5579-1.2297 0-2.2687.5137-3.1153 1.5396-.8466 1.026-1.2692 2.312-1.2692 3.8574Zm5.6372-9.8552c2.2734 0 4.2568.90229 5.9511 2.7075 1.6932 1.8043 2.5399 4.122 2.5399 6.9535 0 2.8298-.8707 5.2012-2.6104 7.1114-1.7396 1.9109-3.7184 2.8661-5.933 2.8661-2.2153 0-4.0541-.9308-5.5156-2.7948v1.032c0 1.3875-1.1062 2.512-2.4704 2.512h-.2795c-1.3645 0-2.4704-1.1245-2.4704-2.512V2.97508c0-1.46582 1.1684-2.654218 2.6103-2.654218 1.4416 0 2.61 1.188398 2.61 2.654218v7.02542c1.4375-1.62707 3.2943-2.4417 5.568-2.4417ZM114 20.9873c0 1.8759-.679 3.3799-2.036 4.5118-1.358 1.1326-3.081 1.6983-5.168 1.6983-1.392 0-2.842-.2536-4.35-.7597-.777-.262-1.515-.5876-2.212-.9777-1.0522-.5883-1.3715-1.9771-.6818-2.9763.6028-.8734 1.7488-1.0947 2.6668-.578 1.491.8393 3.051 1.2584 4.681 1.2584.672 0 1.206-.1362 1.601-.4065.394-.2723.591-.6316.591-1.0796 0-.4479-.272-.8608-.818-1.2385-.544-.3776-1.333-.7308-2.365-1.0625-1.033-.3301-1.822-.613-2.367-.8483-.545-.2357-1.166-.578-1.861-1.0263-1.416-.8958-2.1231-2.223-2.1231-3.981 0-1.7567.6961-3.1908 2.0871-4.2992 1.392-1.10844 3.19-1.6633 5.395-1.6633 1.632 0 3.265.41454 4.899 1.2433.972.49353 1.314 1.7433.784 2.7078l-.056.1012c-.52.945-1.638 1.2491-2.586.8072-1.081-.5031-2.158-.7545-3.233-.7545-1.613 0-2.418.4479-2.418 1.3438 0 .4954.255.8852.765 1.1681.51.2829 1.358.6143 2.541.9909 1.183.3773 2.024.6663 2.523.8667.498.2016 1.096.5138 1.792.9386 1.298.8014 1.949 2.1404 1.949 4.0153Z" fill="#fff"></path></svg>