 <svg version="1.0" xmlns="http://www.w3.org/2000/svg"  width="140.000000pt" height="131.000000pt" viewBox="0 0 140.000000 131.000000"  preserveAspectRatio="xMidYMid meet">  <g transform="translate(0.000000,131.000000) scale(0.100000,-0.100000)" fill="#000000" stroke="none"> <path d="M854 1218 c-16 -12 -31 -25 -34 -28 -3 -3 -63 -53 -135 -109 -71 -57 -132 -107 -135 -110 -3 -3 -27 -24 -55 -46 -27 -21 -52 -42 -55 -45 -3 -3 -36 -30 -75 -60 -38 -30 -79 -63 -90 -72 -102 -85 -235 -194 -263 -214 -17 -12 -9 -34 14 -34 8 0 14 -4 14 -10 0 -5 5 -10 11 -10 12 0 33 -9 187 -82 57 -26 107 -48 110 -48 4 0 29 -11 56 -25 32 -16 73 -27 120 -30 39 -3 103 -10 141 -15 39 -5 104 -14 145 -19 41 -6 86 -13 100 -16 14 -3 67 -10 119 -16 51 -6 104 -14 117 -19 13 -5 25 -6 28 -2 3 4 -6 39 -19 77 -13 39 -24 80 -25 93 0 12 -4 22 -8 22 -5 0 -13 24 -19 53 -6 28 -19 77 -28 107 -9 30 -23 78 -30 105 -8 28 -22 75 -31 105 -8 30 -20 73 -26 95 -5 22 -13 47 -18 56 -5 9 -12 34 -16 55 -3 22 -10 44 -14 49 -4 6 -11 29 -15 52 -4 24 -11 45 -16 49 -5 3 -9 15 -9 26 0 12 -3 18 -6 15 -12 -12 13 -119 100 -429 l24 -87 -61 6 c-55 5 -64 3 -82 -17 l-20 -22 38 7 c91 17 141 -20 141 -107 0 -36 -6 -54 -24 -73 -28 -30 -80 -41 -126 -27 -34 10 -45 3 -21 -16 44 -35 114 -25 163 24 28 29 38 33 49 24 8 -7 15 -20 15 -29 0 -9 9 -44 19 -78 28 -92 23 -101 -47 -91 -152 22 -200 27 -219 22 -19 -5 -21 -1 -25 41 -2 26 0 49 3 51 4 2 7 16 8 31 5 116 9 204 12 303 2 63 7 120 10 125 3 6 7 55 8 110 2 89 6 128 28 268 3 20 3 37 1 37 -3 0 -18 -10 -34 -22z m-27 -88 c-6 -22 -15 -40 -19 -40 -4 0 -8 -6 -8 -12 0 -20 -178 -374 -195 -388 -12 -10 -15 -9 -15 7 0 45 -58 58 -97 21 -13 -13 -23 -33 -23 -50 0 -24 -3 -27 -17 -19 -10 5 -30 14 -45 20 -20 7 -28 18 -28 35 0 14 -4 28 -10 31 -21 13 -9 44 28 71 20 15 39 30 42 34 3 3 70 58 150 122 80 64 165 137 190 162 24 25 47 46 51 46 3 0 1 -18 -4 -40z m10 -174 c-13 -231 -20 -307 -28 -312 -5 -3 -23 3 -40 12 -22 11 -44 14 -73 10 -78 -11 -77 -7 30 212 53 111 102 198 107 195 6 -4 7 -49 4 -117z m-487 -275 l0 -59 38 5 c57 7 76 -13 82 -89 4 -47 9 -63 20 -63 12 0 15 14 15 70 l0 70 34 3 33 3 -3 -85 c-4 -96 -14 -113 -71 -123 -30 -4 -41 -1 -62 20 -22 22 -26 35 -26 82 0 47 -3 55 -19 55 -30 0 -40 -21 -43 -90 -3 -62 -4 -65 -28 -65 l-25 0 -3 150 c-1 82 0 155 2 162 3 7 17 13 31 13 24 0 25 -3 25 -59z m230 1 c0 -47 -36 -67 -66 -38 -15 15 -19 48 -7 59 3 4 21 7 40 7 30 0 33 -3 33 -28z m-334 -125 c-2 -56 -4 -108 -5 -114 -1 -8 -21 -2 -60 17 -32 17 -64 30 -70 30 -6 0 -11 4 -11 9 0 5 -10 12 -22 15 -23 6 -23 7 8 34 101 90 145 123 155 117 4 -3 7 -52 5 -108z m533 49 c27 -25 29 -114 4 -157 -18 -30 -59 -45 -94 -34 -21 7 -22 5 -16 -29 7 -46 0 -66 -23 -66 -44 0 -45 3 -43 158 1 81 2 148 2 148 1 1 34 1 75 0 58 -1 79 -5 95 -20z m-355 -197 c41 -24 43 -29 18 -59 l-19 -23 -34 24 c-19 13 -36 25 -38 26 -4 3 27 53 34 53 2 0 20 -9 39 -21z m147 -57 c6 -28 4 -32 -16 -32 -28 0 -85 20 -85 29 0 10 62 39 80 37 8 -1 17 -16 21 -34z m221 -8 c-2 -21 -6 -41 -8 -43 -5 -6 -78 -10 -86 -5 -15 9 21 69 49 81 40 17 48 11 45 -33z"/> <path d="M682 558 c-17 -17 -15 -63 4 -79 26 -21 49 1 49 47 0 31 -4 40 -20 42 -11 1 -26 -3 -33 -10z"/> <path d="M894 556 c-10 -25 0 -69 19 -80 37 -23 77 43 46 80 -15 18 -58 18 -65 0z"/> <path d="M153 321 c-49 -57 -53 -71 -19 -71 14 0 27 -4 30 -9 3 -5 26 -12 51 -15 24 -4 47 -11 50 -16 3 -5 26 -12 50 -16 25 -3 47 -10 50 -14 3 -5 24 -11 48 -15 23 -4 47 -11 52 -15 6 -4 26 -11 45 -15 19 -4 40 -11 45 -15 6 -4 29 -11 52 -15 24 -4 45 -10 48 -15 3 -5 23 -11 46 -15 22 -4 53 -13 67 -21 l27 -14 6 58 c13 110 8 143 -8 59 -17 -89 -14 -88 -123 -53 -41 13 -127 40 -190 59 -279 85 -320 99 -325 106 -2 5 9 27 25 50 17 22 30 43 30 46 0 15 -19 0 -57 -44z"/> <path d="M570 249 c25 -12 71 -34 103 -50 32 -16 63 -29 68 -29 5 0 9 18 9 41 l0 41 -18 -22 -18 -22 -78 31 c-88 35 -135 42 -66 10z"/> </g> </svg> 